<svg width="74" height="74" viewBox="0 0 74 74" fill="none" xmlns="http://www.w3.org/2000/svg">
<rect x="3.5" y="3.5" width="67" height="67" rx="16.5" stroke="black" stroke-width="7"/>
<path d="M50.2388 41.0056V36.1826H58.1966V50.3701C54.3651 50.9863 51.257 51.2944 48.8723 51.2944C44.6121 51.2944 41.6781 50.1557 40.0705 47.8782C38.4896 45.6007 37.6992 41.9835 37.6992 37.0267C37.6992 32.0698 38.5298 28.4928 40.1911 26.2957C41.8523 24.0986 44.6791 23 48.6714 23C51.1632 23 53.856 23.2813 56.7497 23.844L58.1966 24.1253L58.0359 28.4258C54.8206 28.0775 52.1814 27.9033 50.1182 27.9033C48.0819 27.9033 46.6484 28.1444 45.8178 28.6267C44.9872 29.109 44.3709 30.0066 43.969 31.3195C43.5939 32.6056 43.4063 34.8295 43.4063 37.9912C43.4063 41.1261 43.7949 43.3232 44.5719 44.5826C45.3489 45.8419 46.9565 46.4715 49.3948 46.4715L52.7306 46.3108V41.0056H50.2388Z" fill="black"/>
<path d="M26.2535 50.8122V46.4314H15V42.2113L21.5511 24.2861H27.6602L20.5464 41.6084H26.2535V34.1731H31.7998V41.6084H34.3319V46.4314H31.7998V50.8122H26.2535Z" fill="black"/>
</svg>
