<svg width="74" height="74" viewBox="0 0 74 74" fill="none" xmlns="http://www.w3.org/2000/svg">
<rect x="3.5" y="3.5" width="67" height="67" rx="16.5" stroke="black" stroke-width="7"/>
<path d="M50.8326 41.0056V36.1826H58.7904V50.3701C54.9588 50.9863 51.8507 51.2944 49.4661 51.2944C45.2058 51.2944 42.2719 50.1557 40.6642 47.8782C39.0834 45.6007 38.293 41.9835 38.293 37.0267C38.293 32.0698 39.1236 28.4928 40.7848 26.2957C42.446 24.0986 45.2728 23 49.2651 23C51.7569 23 54.4497 23.2813 57.3435 23.844L58.7904 24.1253L58.6296 28.4258C55.4143 28.0775 52.7751 27.9033 50.712 27.9033C48.6756 27.9033 47.2422 28.1444 46.4115 28.6267C45.5809 29.109 44.9647 30.0066 44.5628 31.3195C44.1876 32.6056 44.0001 34.8295 44.0001 37.9912C44.0001 41.1261 44.3886 43.3232 45.1656 44.5826C45.9427 45.8419 47.5503 46.4715 49.9885 46.4715L53.3244 46.3108V41.0056H50.8326Z" fill="black"/>
<path d="M33.684 24.2852V29.1081H21.8277L21.1444 34.8554C22.8057 34.2123 24.3865 33.8908 25.887 33.8908C31.6209 33.8908 34.4879 36.5568 34.4879 41.8888C34.4879 44.8897 33.6974 47.2074 32.1166 48.8418C30.5357 50.4763 28.2984 51.2935 25.4047 51.2935C24.1722 51.2935 22.7655 51.1729 21.1846 50.9318C19.6306 50.6906 18.3847 50.4361 17.4469 50.1681L16 49.8064L16.6029 45.7069C19.8449 46.216 22.5511 46.4706 24.7214 46.4706C26.0343 46.4706 27.0391 46.1223 27.7358 45.4256C28.4324 44.729 28.7807 43.7376 28.7807 42.4515C28.7807 41.1386 28.486 40.1874 27.8965 39.5979C27.3071 39.0085 26.4764 38.7137 25.4047 38.7137C23.6095 38.7137 22.0286 38.8879 20.6622 39.2362L20.0593 39.397L16.7636 38.6333L17.4871 24.2852H33.684Z" fill="black"/>
</svg>
