<svg width="80" height="73" viewBox="0 0 80 73" fill="none" xmlns="http://www.w3.org/2000/svg">
<path d="M78.7171 28.2817C78.1258 27.1059 76.8736 26.391 75.5799 26.5036L71.647 26.7909C67.3811 11.372 53.2603 2.98352e-09 36.5004 2.98352e-09C16.374 -0.000255227 0 16.375 0 36.4999C0 56.6263 16.374 73 36.5001 73C48.1501 73 59.1987 67.3638 66.0552 57.9254C67.1075 56.4734 66.7839 54.4466 65.3347 53.3915C63.8827 52.3379 61.8544 52.6653 60.8021 54.1105C55.1617 61.8748 46.0774 66.5113 36.4986 66.5113C19.9498 66.5113 6.48819 53.0484 6.48819 36.5009C6.48819 19.9533 19.95 6.491 36.4988 6.491C49.8269 6.491 61.141 15.2311 65.0432 27.2754L62.9955 27.4252C61.6877 27.5196 60.5647 28.3968 60.1525 29.6408C59.7388 30.8874 60.1191 32.259 61.1104 33.1168L67.0018 38.2046C67.5751 39.1277 68.5886 39.7454 69.7519 39.7454C69.8129 39.7454 69.8699 39.7316 69.9296 39.7288C69.949 39.7288 69.9643 39.7372 69.9824 39.7372C70.0603 39.7372 70.1394 39.7359 70.2198 39.7288C71.0776 39.665 71.8744 39.2638 72.4382 38.6127L78.27 31.8603C79.1309 30.868 79.3057 29.4532 78.7171 28.2817Z" fill="#010002"/>
<path d="M34.0146 50H18V45.6473L23.2759 40.3274C25.1467 38.4177 26.4439 36.9544 27.1673 35.9375C27.9156 34.9206 28.2898 33.8418 28.2898 32.7009C28.2898 31.5352 27.978 30.7168 27.3544 30.2455C26.7557 29.7743 25.8951 29.5387 24.7725 29.5387C23.1012 29.5387 21.2803 29.6875 19.3096 29.9851L18.4116 30.0967L18.1497 26.1161C20.5943 25.372 23.1262 25 25.7454 25C30.9838 25 33.6031 27.3438 33.6031 32.0313C33.6031 33.8666 33.2039 35.4539 32.4057 36.7932C31.6075 38.1324 30.1607 39.7569 28.0653 41.6667L23.7623 45.5357H34.0146V50Z" fill="black"/>
<path d="M48.4791 50V45.9449H38.0022V42.0387L44.1013 25.4464H49.7887L43.1658 41.4807H48.4791V34.5982H53.6427V41.4807H56V45.9449H53.6427V50H48.4791Z" fill="black"/>
</svg>
