<svg width="93" height="74" viewBox="0 0 93 74" fill="none" xmlns="http://www.w3.org/2000/svg">
<path d="M36.238 17.2367C36.238 14.2272 36.2296 12.0139 36.137 10.3638C35.0279 11.571 33.632 13.2673 31.7393 15.5783L22.9654 26.2921C22.0662 27.39 20.8241 28.1403 19.4472 28.4207L12.2668 29.8819C11.6801 30.0015 11.17 30.3677 10.8622 30.8898C8.64452 34.6503 8.64452 39.3497 10.8622 43.1103C11.17 43.6324 11.6803 43.997 12.2668 44.1165L19.4472 45.5777L19.9574 45.7057C21.1292 46.0525 22.1771 46.7478 22.9637 47.708H22.9654L31.7393 58.4201C33.632 60.7311 35.0279 62.4273 36.137 63.6346C36.2295 61.9846 36.238 59.7721 36.238 56.7634V17.2367ZM44.7187 56.7634C44.7187 60.6073 44.727 63.9565 44.399 66.4137C44.1113 68.5693 43.3088 72.2625 39.6833 73.5984V73.6001C36.0574 74.9355 33.1157 72.6195 31.5389 71.1513C29.7409 69.4772 27.6416 66.8978 25.2231 63.9447L16.9759 53.8747L10.6038 52.5786V52.577C7.67429 51.9807 5.12779 50.1564 3.59063 47.5495C-0.238544 41.0562 -0.238544 32.9438 3.59063 26.4505L3.89044 25.9702C5.44756 23.6197 7.85742 21.9805 10.6038 21.4214L16.9759 20.1237L25.2231 10.0554C27.6415 7.10243 29.7409 4.52283 31.5389 2.84879C33.1156 1.38067 36.0572 -0.93566 39.6833 0.399967C43.3094 1.73566 44.1113 5.43096 44.399 7.58633C44.727 10.0436 44.7187 13.3927 44.7187 17.2367V56.7634Z" fill="black"/>
<path d="M56.9869 18.2631C58.6777 16.5789 61.4185 16.579 63.1094 18.2631C67.9562 23.0907 70.6913 29.6304 70.7185 36.4574C70.7456 43.2848 68.063 49.8466 63.2548 54.7123C61.5773 56.4097 58.8348 56.4321 57.1306 54.7612C55.4266 53.0903 55.406 50.3601 57.0833 48.6627C60.2889 45.419 62.0769 41.0444 62.0591 36.4928C62.0411 31.9414 60.2182 27.5801 56.9869 24.3616C55.296 22.6774 55.2961 19.9474 56.9869 18.2631Z" fill="black"/>
<path d="M75.0001 9.28024C76.7086 7.57327 79.478 7.57323 81.1865 9.28024C88.5322 16.6201 92.6776 26.5632 92.7184 36.9433C92.7597 47.3231 88.6928 57.2978 81.4052 64.6951C79.7104 66.4154 76.9408 66.4377 75.2188 64.7446C73.497 63.0511 73.4746 60.284 75.1693 58.5635C80.6607 52.9897 83.8001 45.5339 83.9618 37.7338L83.9686 36.9774C83.9369 28.9041 80.7134 21.1702 75.0001 15.4614C73.2917 13.7543 73.2916 10.9873 75.0001 9.28024Z" fill="black"/>
</svg>
