<svg width="72" height="72" viewBox="0 0 72 72" fill="none" xmlns="http://www.w3.org/2000/svg">
<path d="M66.9023 0C56.0437 0 29.8645 1.74528 14.157 17.4528C4.02752 27.5823 3.13043 43.411 11.3998 54.5884L1.12132 64.8669C-0.0502515 66.0385 -0.0502525 67.938 1.12132 69.1096L2.89045 70.8787C4.06202 72.0503 5.96151 72.0503 7.13309 70.8787L17.4116 60.6002C22.4348 64.3161 28.3871 66.2081 34.3521 66.2081C41.6606 66.2081 48.9712 63.419 54.5472 57.843C74.7423 37.6479 71.8576 0.142429 71.8576 0.142429C71.8576 0.142429 70.006 0 66.9023 0ZM14.2951 37.6479C14.2951 32.2909 16.3805 27.2528 20.1687 23.4646C30.16 13.4733 45.706 10.0827 56.994 8.99214L17.4902 48.498C15.4176 45.2902 14.2951 41.5573 14.2951 37.6479ZM48.5354 51.8291C44.7472 55.6173 39.7112 57.7027 34.3521 57.7027C30.4427 57.7027 26.7098 56.5803 23.502 54.5077L62.9951 15.0145C61.8982 26.3344 58.5033 41.8613 48.5354 51.8291Z" fill="black"/>
</svg>
