<svg width="74" height="74" viewBox="0 0 74 74" fill="none" xmlns="http://www.w3.org/2000/svg">
<path d="M31.82 74C28.675 74 26.286 73.0602 24.6531 71.1806C23.0177 69.2985 22.2 67.155 22.2 64.75C22.2 63.1467 22.5552 61.5902 23.2656 60.0806C23.9735 58.5685 25.0675 57.3192 26.5475 56.3325C27.9042 55.4692 28.9981 54.3592 29.8294 53.0025C30.6631 51.6458 31.2342 50.1967 31.5425 48.655L30.4325 48.1C30.0625 47.915 29.7233 47.6992 29.415 47.4525L20.905 50.505C19.8567 50.875 18.8392 51.1833 17.8525 51.43C16.8658 51.6767 15.8483 51.8 14.8 51.8C10.915 51.8 7.47647 50.1042 4.4844 46.7125C1.4948 43.3208 0 38.3567 0 31.82C0 28.675 0.941033 26.2848 2.8231 24.6494C4.7027 23.0165 6.81417 22.2 9.1575 22.2C10.7608 22.2 12.3333 22.554 13.875 23.2619C15.4167 23.9723 16.6808 25.0675 17.6675 26.5475C18.5308 27.9042 19.6408 28.9981 20.9975 29.8294C22.3542 30.6631 23.8033 31.2342 25.345 31.5425L25.9 30.4325C26.085 30.0625 26.3008 29.7233 26.5475 29.415L23.495 20.905C23.125 19.8567 22.8167 18.8392 22.57 17.8525C22.3233 16.8658 22.2 15.8792 22.2 14.8925C22.2 10.9458 23.8958 7.47647 27.2875 4.4844C30.6792 1.4948 35.6433 0 42.18 0C45.325 0 47.7152 0.9398 49.3506 2.8194C50.9835 4.70147 51.8 6.81417 51.8 9.1575C51.8 10.7608 51.446 12.3333 50.7381 13.875C50.0277 15.4167 48.9325 16.6808 47.4525 17.6675C46.0958 18.5308 45.0019 19.6408 44.1706 20.9975C43.3369 22.3542 42.7658 23.8033 42.4575 25.345L43.5675 25.9C43.9375 26.085 44.2767 26.3008 44.585 26.5475L53.095 23.4025C54.1433 23.0325 55.146 22.739 56.1031 22.5219C57.0577 22.3073 58.0592 22.2 59.1075 22.2C64.1025 22.2 67.8333 24.2658 70.3 28.3975C72.7667 32.5292 74 37.1233 74 42.18C74 45.325 73.0133 47.714 71.04 49.3469C69.0667 50.9823 66.8775 51.8 64.4725 51.8C62.9308 51.8 61.4348 51.4448 59.9844 50.7344C58.5365 50.0265 57.3192 48.9325 56.3325 47.4525C55.4692 46.0958 54.3592 45.0019 53.0025 44.1706C51.6458 43.3369 50.1967 42.7658 48.655 42.4575L48.1 43.5675C47.915 43.9375 47.6992 44.2767 47.4525 44.585L50.505 53.095C50.875 54.0817 51.1833 55.0227 51.43 55.9181C51.6767 56.811 51.8 57.7508 51.8 58.7375C51.8617 62.7458 50.1967 66.2917 46.805 69.375C43.4133 72.4583 38.4183 74 31.82 74ZM37 42.55C38.5417 42.55 39.8515 42.0098 40.9294 40.9294C42.0098 39.8515 42.55 38.5417 42.55 37C42.55 35.4583 42.0098 34.1485 40.9294 33.0706C39.8515 31.9902 38.5417 31.45 37 31.45C35.4583 31.45 34.1485 31.9902 33.0706 33.0706C31.9902 34.1485 31.45 35.4583 31.45 37C31.45 38.5417 31.9902 39.8515 33.0706 40.9294C34.1485 42.0098 35.4583 42.55 37 42.55ZM32.745 24.79C33.115 24.6667 33.501 24.5581 33.9031 24.4644C34.3027 24.3731 34.6875 24.2967 35.0575 24.235C35.5508 21.645 36.4919 19.24 37.8806 17.02C39.2669 14.8 41.1008 12.95 43.3825 11.47C43.6908 11.2233 43.9375 10.915 44.1225 10.545C44.3075 10.175 44.4 9.7125 44.4 9.1575C44.4 8.66417 44.215 8.2473 43.845 7.9069C43.475 7.56897 42.92 7.4 42.18 7.4C39.8367 7.4 37.185 7.90813 34.225 8.9244C31.265 9.94313 29.7233 11.9325 29.6 14.8925C29.6 15.4475 29.6765 15.9717 29.8294 16.465C29.9848 16.9583 30.1242 17.4208 30.2475 17.8525L32.745 24.79ZM14.8 44.4C15.6633 44.4 16.6808 44.1842 17.8525 43.7525L24.79 41.255C24.6667 40.885 24.5594 40.499 24.4681 40.0969C24.3744 39.6973 24.2967 39.3125 24.235 38.9425C21.645 38.4492 19.24 37.5081 17.02 36.1194C14.8 34.7331 12.95 32.8992 11.47 30.6175C11.2233 30.3092 10.9002 30.0625 10.5006 29.8775C10.0985 29.6925 9.65083 29.6 9.1575 29.6C8.6025 29.6 8.17083 29.785 7.8625 30.155C7.55417 30.525 7.4 31.08 7.4 31.82C7.4 35.15 8.0327 38.0792 9.2981 40.6075C10.561 43.1358 12.395 44.4 14.8 44.4ZM31.82 66.6C34.7183 66.6 37.571 66.0142 40.3781 64.8425C43.1827 63.6708 44.5233 61.6358 44.4 58.7375C44.4 58.0592 44.1842 57.1958 43.7525 56.1475L41.255 49.21C40.885 49.3333 40.5002 49.4406 40.1006 49.5319C39.6985 49.6256 39.3125 49.7033 38.9425 49.765C38.4492 52.355 37.5094 54.76 36.1231 56.98C34.7344 59.2 32.8992 61.05 30.6175 62.53C30.3092 62.7767 30.0465 63.101 29.8294 63.5031C29.6148 63.9027 29.5383 64.3183 29.6 64.75C29.6617 65.2433 29.8467 65.675 30.155 66.045C30.4633 66.415 31.0183 66.6 31.82 66.6ZM64.4725 44.4C65.0275 44.4 65.5208 44.2458 65.9525 43.9375C66.3842 43.6292 66.6 43.0433 66.6 42.18C66.6 39.8367 66.1067 37.169 65.12 34.1769C64.1333 31.1873 62.1292 29.6617 59.1075 29.6C58.5525 29.6 58.0283 29.6617 57.535 29.785C57.0417 29.9083 56.5792 30.0317 56.1475 30.155L49.21 32.745C49.3333 33.115 49.4419 33.4998 49.5356 33.8994C49.6269 34.3015 49.7033 34.6875 49.765 35.0575C52.355 35.5508 54.76 36.4906 56.98 37.8769C59.2 39.2656 61.05 41.1008 62.53 43.3825C62.715 43.6908 62.9925 43.9375 63.3625 44.1225C63.7325 44.3075 64.1025 44.4 64.4725 44.4Z" fill="black"/>
</svg>
