<svg width="74" height="74" viewBox="0 0 74 74" fill="none" xmlns="http://www.w3.org/2000/svg">
<rect x="3.5" y="3.5" width="67" height="67" rx="16.5" stroke="black" stroke-width="7"/>
<path d="M10 22.7644C14.5892 19.0267 20.3183 16.9912 26.2245 17C32.3714 17 38.0163 19.159 42.449 22.7644L39.7449 26.129C35.9204 23.0147 31.1462 21.3188 26.2245 21.3266C21.1032 21.3266 16.398 23.1264 12.7041 26.129L10 22.7644ZM14.5058 28.3745C17.8205 25.6747 21.9586 24.2045 26.2245 24.2109C30.6629 24.2109 34.7398 25.7699 37.9431 28.373L35.2391 31.7391C32.6892 29.6626 29.5059 28.5321 26.2245 28.5374C22.8103 28.5374 19.6744 29.7373 17.2099 31.7391L14.5058 28.3745ZM19.0131 33.9845C21.0528 32.323 23.5993 31.418 26.2245 31.4218C28.9558 31.4218 31.4648 32.3808 33.4359 33.9831L30.7318 37.3491C29.4568 36.311 27.8652 35.7457 26.2245 35.7483C24.5838 35.7457 22.9922 36.311 21.7172 37.3491L19.0131 33.9845ZM23.5204 39.5946C24.2851 38.9712 25.24 38.6315 26.2245 38.6327C27.2487 38.6327 28.1898 38.9932 28.9286 39.5931L26.2245 42.9592L23.5204 39.5946Z" fill="black"/>
<path d="M62.9982 56.412V39.8926C62.9982 39.5796 62.8843 39.2795 62.6814 39.0582C62.4786 38.8369 62.2035 38.7126 61.9166 38.7126H58.6717V35.1727C58.6717 34.8598 58.5578 34.5596 58.3549 34.3383C58.1521 34.1171 57.877 33.9927 57.5901 33.9927H55.4268V32.8128C55.4268 32.4998 55.3129 32.1997 55.11 31.9784C54.9072 31.7571 54.6321 31.6328 54.3452 31.6328H45.6921C45.4053 31.6328 45.1301 31.7571 44.9273 31.9784C44.7244 32.1997 44.6105 32.4998 44.6105 32.8128V33.9927H42.4472C42.1604 33.9927 41.8852 34.1171 41.6824 34.3383C41.4796 34.5596 41.3656 34.8598 41.3656 35.1727V38.7126H38.1207C37.8338 38.7126 37.5587 38.8369 37.3559 39.0582C37.153 39.2795 37.0391 39.5796 37.0391 39.8926V56.412C37.0391 56.725 37.153 57.0251 37.3559 57.2464C37.5587 57.4677 37.8338 57.592 38.1207 57.592H61.9166C62.2035 57.592 62.4786 57.4677 62.6814 57.2464C62.8843 57.0251 62.9982 56.725 62.9982 56.412ZM40.8248 48.8898H41.9064C42.0498 48.8898 42.1874 48.9519 42.2888 49.0626C42.3902 49.1732 42.4472 49.3233 42.4472 49.4798V54.6421C42.4472 54.7986 42.3902 54.9486 42.2888 55.0593C42.1874 55.1699 42.0498 55.2321 41.9064 55.2321H40.8248C40.6813 55.2321 40.5438 55.1699 40.4424 55.0593C40.3409 54.9486 40.284 54.7986 40.284 54.6421V49.4798C40.284 49.3233 40.3409 49.1732 40.4424 49.0626C40.5438 48.9519 40.6813 48.8898 40.8248 48.8898ZM45.1513 48.8898H46.2329C46.3764 48.8898 46.5139 48.9519 46.6154 49.0626C46.7168 49.1732 46.7738 49.3233 46.7738 49.4798V54.6421C46.7738 54.7986 46.7168 54.9486 46.6154 55.0593C46.5139 55.1699 46.3764 55.2321 46.2329 55.2321H45.1513C45.0079 55.2321 44.8703 55.1699 44.7689 55.0593C44.6675 54.9486 44.6105 54.7986 44.6105 54.6421V49.4798C44.6105 49.3233 44.6675 49.1732 44.7689 49.0626C44.8703 48.9519 45.0079 48.8898 45.1513 48.8898ZM48.937 49.4798C48.937 49.3233 48.994 49.1732 49.0954 49.0626C49.1968 48.9519 49.3344 48.8898 49.4778 48.8898H50.5595C50.7029 48.8898 50.8405 48.9519 50.9419 49.0626C51.0433 49.1732 51.1003 49.3233 51.1003 49.4798V54.6421C51.1003 54.7986 51.0433 54.9486 50.9419 55.0593C50.8405 55.1699 50.7029 55.2321 50.5595 55.2321H49.4778C49.3344 55.2321 49.1968 55.1699 49.0954 55.0593C48.994 54.9486 48.937 54.7986 48.937 54.6421V49.4798ZM53.8044 48.8898H54.886C55.0294 48.8898 55.167 48.9519 55.2684 49.0626C55.3698 49.1732 55.4268 49.3233 55.4268 49.4798V54.6421C55.4268 54.7986 55.3698 54.9486 55.2684 55.0593C55.167 55.1699 55.0294 55.2321 54.886 55.2321H53.8044C53.6609 55.2321 53.5234 55.1699 53.422 55.0593C53.3205 54.9486 53.2636 54.7986 53.2636 54.6421V49.4798C53.2636 49.3233 53.3205 49.1732 53.422 49.0626C53.5234 48.9519 53.6609 48.8898 53.8044 48.8898ZM57.5901 49.4798C57.5901 49.3233 57.6471 49.1732 57.7485 49.0626C57.8499 48.9519 57.9875 48.8898 58.1309 48.8898H59.2125C59.356 48.8898 59.4935 48.9519 59.5949 49.0626C59.6964 49.1732 59.7533 49.3233 59.7533 49.4798V54.6421C59.7533 54.7986 59.6964 54.9486 59.5949 55.0593C59.4935 55.1699 59.356 55.2321 59.2125 55.2321H58.1309C57.9875 55.2321 57.8499 55.1699 57.7485 55.0593C57.6471 54.9486 57.5901 54.7986 57.5901 54.6421V49.4798Z" fill="black"/>
</svg>
