<svg width="28" height="16" viewBox="0 0 28 16" fill="none" xmlns="http://www.w3.org/2000/svg">
<path d="M5.97924 13C5.43698 13 4.97155 12.8009 4.58293 12.4028C4.19431 12.0046 4 11.5324 4 10.9861V10.2083H6.07414V10.4167C6.07414 10.7222 6.07414 10.875 6.07414 10.875C6.07414 10.875 6.22326 10.875 6.5215 10.875H11.0629C11.3612 10.875 11.5103 10.875 11.5103 10.875C11.5103 10.875 11.5103 10.7222 11.5103 10.4167V9.45833C11.5103 9.15278 11.5103 9 11.5103 9C11.5103 9 11.3612 9 11.0629 9H4V3H13.5844V5.125H6.5215C6.22326 5.125 6.07414 5.125 6.07414 5.125C6.07414 5.125 6.07414 5.27778 6.07414 5.58333V6.40278C6.07414 6.70833 6.07414 6.86111 6.07414 6.86111C6.07414 6.86111 6.22326 6.86111 6.5215 6.86111H11.6052C12.1474 6.86111 12.6129 7.06018 13.0015 7.45833C13.3901 7.84722 13.5844 8.31944 13.5844 8.875V10.9861C13.5844 11.5324 13.3901 12.0046 13.0015 12.4028C12.6129 12.8009 12.1474 13 11.6052 13H5.97924Z" fill="#627482"/>
<path d="M17.2457 13C16.6944 13 16.2199 12.8009 15.8223 12.4028C15.4337 11.9954 15.2394 11.5093 15.2394 10.9444V5.05556C15.2394 4.49074 15.4337 4.00926 15.8223 3.61111C16.2199 3.2037 16.6944 3 17.2457 3H22.9801C23.5314 3 24.0059 3.2037 24.4035 3.61111C24.8012 4.00926 25 4.49074 25 5.05556V6H22.8716V5.625C22.8716 5.31944 22.8716 5.16667 22.8716 5.16667C22.8716 5.16667 22.7225 5.16667 22.4243 5.16667H17.788C17.4897 5.16667 17.3406 5.16667 17.3406 5.16667C17.3406 5.16667 17.3406 5.31944 17.3406 5.625V10.375C17.3406 10.6806 17.3406 10.8333 17.3406 10.8333C17.3406 10.8333 17.4897 10.8333 17.788 10.8333H22.4243C22.7225 10.8333 22.8716 10.8333 22.8716 10.8333C22.8716 10.8333 22.8716 10.6806 22.8716 10.375V9.33333H20.7568V7.16667H25V10.9444C25 11.5093 24.8012 11.9954 24.4035 12.4028C24.0059 12.8009 23.5314 13 22.9801 13H17.2457Z" fill="#627482"/>
</svg>

