<svg width="61" height="16" viewBox="0 0 61 16" fill="none" xmlns="http://www.w3.org/2000/svg">
<path d="M9.74487 13V10.5139H4V8.61111L9.95814 3H11.7842V8.375H13.0638V10.5139H11.7842V13H9.74487ZM7.31896 8.375H9.74487V6.31944L7.31896 8.375Z" fill="#627482"/>
<path d="M16.3757 13C15.8337 13 15.3671 12.8009 14.9762 12.4028C14.5941 11.9954 14.403 11.5093 14.403 10.9444V5.05556C14.403 4.49074 14.5941 4.00926 14.9762 3.61111C15.3671 3.2037 15.8337 3 16.3757 3H22.014C22.556 3 23.0225 3.2037 23.4135 3.61111C23.8045 4.00926 24 4.49074 24 5.05556V6H21.9073V5.625C21.9073 5.31944 21.9073 5.16667 21.9073 5.16667C21.9073 5.16667 21.7607 5.16667 21.4675 5.16667H16.9089C16.6156 5.16667 16.469 5.16667 16.469 5.16667C16.469 5.16667 16.469 5.31944 16.469 5.625V10.375C16.469 10.6806 16.469 10.8333 16.469 10.8333C16.469 10.8333 16.6156 10.8333 16.9089 10.8333H21.4675C21.7607 10.8333 21.9073 10.8333 21.9073 10.8333C21.9073 10.8333 21.9073 10.6806 21.9073 10.375V9.33333H19.828V7.16667H24V10.9444C24 11.5093 23.8045 11.9954 23.4135 12.4028C23.0225 12.8009 22.556 13 22.014 13H16.3757Z" fill="#627482"/>
<path d="M38.9792 13C38.437 13 37.9715 12.8009 37.5829 12.4028C37.1943 12.0046 37 11.5324 37 10.9861V10.2083H39.0741V10.4167C39.0741 10.7222 39.0741 10.875 39.0741 10.875C39.0741 10.875 39.2233 10.875 39.5215 10.875H44.0629C44.3612 10.875 44.5103 10.875 44.5103 10.875C44.5103 10.875 44.5103 10.7222 44.5103 10.4167V9.45833C44.5103 9.15278 44.5103 9 44.5103 9C44.5103 9 44.3612 9 44.0629 9H37V3H46.5844V5.125H39.5215C39.2233 5.125 39.0741 5.125 39.0741 5.125C39.0741 5.125 39.0741 5.27778 39.0741 5.58333V6.40278C39.0741 6.70833 39.0741 6.86111 39.0741 6.86111C39.0741 6.86111 39.2233 6.86111 39.5215 6.86111H44.6052C45.1474 6.86111 45.6129 7.06018 46.0015 7.45833C46.3901 7.84722 46.5844 8.31944 46.5844 8.875V10.9861C46.5844 11.5324 46.3901 12.0046 46.0015 12.4028C45.6129 12.8009 45.1474 13 44.6052 13H38.9792Z" fill="#627482"/>
<path d="M50.2457 13C49.6944 13 49.2199 12.8009 48.8223 12.4028C48.4337 11.9954 48.2394 11.5093 48.2394 10.9444V5.05556C48.2394 4.49074 48.4337 4.00926 48.8223 3.61111C49.2199 3.2037 49.6944 3 50.2457 3H55.9801C56.5314 3 57.0059 3.2037 57.4035 3.61111C57.8012 4.00926 58 4.49074 58 5.05556V6H55.8716V5.625C55.8716 5.31944 55.8716 5.16667 55.8716 5.16667C55.8716 5.16667 55.7225 5.16667 55.4243 5.16667H50.788C50.4897 5.16667 50.3406 5.16667 50.3406 5.16667C50.3406 5.16667 50.3406 5.31944 50.3406 5.625V10.375C50.3406 10.6806 50.3406 10.8333 50.3406 10.8333C50.3406 10.8333 50.4897 10.8333 50.788 10.8333H55.4243C55.7225 10.8333 55.8716 10.8333 55.8716 10.8333C55.8716 10.8333 55.8716 10.6806 55.8716 10.375V9.33333H53.7568V7.16667H58V10.9444C58 11.5093 57.8012 11.9954 57.4035 12.4028C57.0059 12.8009 56.5314 13 55.9801 13H50.2457Z" fill="#627482"/>
<path d="M32.5256 2.86364L29.7131 13.3125H28.1491L30.9616 2.86364H32.5256Z" fill="#627482"/>
</svg>