<svg width="18" height="18" viewBox="-2 -2 24 24" fill="none" xmlns="http://www.w3.org/2000/svg">
<path fill-rule="evenodd" clip-rule="evenodd" d="M16.7673 4.6978C16.7841 4.81103 16.7696 4.92675 16.7253 5.03219C16.681 5.13762 16.6087 5.22867 16.5164 5.2953C16.4241 5.36192 16.3153 5.40152 16.202 5.40973C16.0888 5.41795 15.9755 5.39445 15.8747 5.34184C14.4592 4.85599 12.1848 5.83898 11.4528 7.04043C11.4006 7.14538 11.3259 7.23735 11.2342 7.30973C11.1426 7.38211 11.0361 7.43309 10.9225 7.45902C10.809 7.48495 10.6911 7.48518 10.5775 7.45969C10.4638 7.4342 10.3572 7.38363 10.2652 7.3116C9.78991 6.98688 9.21424 6.84642 8.64434 6.91614C8.52252 6.93427 8.39816 6.91168 8.29026 6.85183C8.18236 6.79199 8.09685 6.69817 8.04679 6.58471C7.50131 5.69526 7.29776 4.63512 7.47461 3.60462C7.65145 2.57413 8.19644 1.64463 9.0066 0.991779C11.7479 -1.21903 16.2892 0.374108 16.7673 4.6978ZM9.12611 16.9119C9.91302 16.2327 10.4261 15.2865 10.5686 14.2519C10.711 13.2173 10.4729 12.166 9.89919 11.2963C9.84627 11.1845 9.75839 11.0934 9.64907 11.0369C9.53975 10.9804 9.41505 10.9617 9.29417 10.9837C8.7262 11.0741 8.14499 10.9537 7.65838 10.6448C7.56372 10.5762 7.4552 10.5295 7.34059 10.5082C7.22598 10.4868 7.1081 10.4912 6.99537 10.521C6.88263 10.5509 6.77783 10.6055 6.68843 10.6809C6.59904 10.7563 6.52726 10.8507 6.47823 10.9574C5.79105 12.1739 3.55024 13.2284 2.11613 12.8028C2.01359 12.7538 1.89961 12.7342 1.78675 12.7463C1.67389 12.7584 1.56654 12.8017 1.47653 12.8715C1.38653 12.9412 1.31737 13.0346 1.27668 13.1415C1.236 13.2483 1.22536 13.3644 1.24595 13.477C1.86591 17.7856 6.45955 19.2055 9.12611 16.9119ZM0.991992 9.00266C1.65333 9.81797 2.58491 10.3644 3.61464 10.5409C4.64437 10.7174 5.70266 10.5122 6.594 9.96306C6.707 9.9151 6.80098 9.8306 6.86115 9.72288C6.92133 9.61515 6.94427 9.49031 6.92639 9.36799C6.85837 8.79637 6.9991 8.21933 7.32226 7.74472C7.39418 7.65263 7.44467 7.54543 7.47004 7.43104C7.49541 7.31664 7.49499 7.19796 7.46883 7.08375C7.44267 6.96954 7.39142 6.8627 7.31887 6.77112C7.24632 6.67953 7.15431 6.60553 7.04963 6.55458C5.84707 5.82392 4.86858 3.54155 5.35409 2.13296C5.40531 2.03114 5.42754 1.917 5.41832 1.80321C5.4091 1.68941 5.36878 1.58043 5.30185 1.48835C5.23491 1.39627 5.14398 1.32469 5.03915 1.28158C4.93432 1.23847 4.81969 1.2255 4.70799 1.24412C0.372036 1.71491 -1.21893 6.25328 0.991992 8.99513V9.00266ZM16.9092 8.88214C16.2214 8.09271 15.2742 7.58 14.2417 7.43816C13.2092 7.29633 12.1606 7.5349 11.2885 8.11005C11.1777 8.16264 11.087 8.25041 11.0303 8.35992C10.9736 8.46944 10.9541 8.59467 10.9748 8.71642C11.0645 9.28488 10.9435 9.86674 10.6349 10.351C10.5664 10.4455 10.5198 10.5544 10.4985 10.6695C10.4772 10.7846 10.4818 10.9031 10.5119 11.0162C10.542 11.1292 10.5969 11.2341 10.6724 11.323C10.748 11.4119 10.8424 11.4826 10.9486 11.5298C12.1736 12.2228 13.2305 14.46 12.7898 15.895C12.7414 15.9983 12.7223 16.1132 12.7348 16.2269C12.7472 16.3405 12.7907 16.4484 12.8604 16.5386C12.9301 16.6288 13.0232 16.6977 13.1295 16.7377C13.2357 16.7777 13.3508 16.7871 13.4621 16.765C17.7831 16.1322 19.2097 11.5449 16.9092 8.87461V8.88214ZM8.99913 7.86901C8.77754 7.86901 8.56092 7.93528 8.37667 8.05943C8.19242 8.18359 8.04882 8.36005 7.96402 8.56651C7.87922 8.77297 7.85703 9.00015 7.90026 9.21933C7.94349 9.4385 8.0502 9.63983 8.20689 9.79785C8.36358 9.95586 8.56322 10.0635 8.78055 10.1071C8.99789 10.1507 9.22316 10.1283 9.42789 10.0428C9.63262 9.95725 9.8076 9.81244 9.93071 9.62663C10.0538 9.44082 10.1195 9.22237 10.1195 8.9989C10.1195 8.69923 10.0015 8.41184 9.79138 8.19995C9.58126 7.98805 9.29628 7.86901 8.99913 7.86901Z" fill="#616161"/>
</svg>
