<svg width="16" height="22" viewBox="0 0 16 22" fill="none" xmlns="http://www.w3.org/2000/svg">
<path fill-rule="evenodd" clip-rule="evenodd" d="M0.292999 5.62145L5 0.349609H15C15.2652 0.349609 15.5196 0.467609 15.7071 0.67765C15.8946 0.88769 16 1.17257 16 1.46961V20.0296C16 20.3266 15.8946 20.6115 15.7071 20.8216C15.5196 21.0316 15.2652 21.1496 15 21.1496H0.999999C0.734783 21.1496 0.480427 21.0316 0.292891 20.8216C0.105354 20.6115 0 20.3266 0 20.0296V6.41329C5.58029e-05 6.11627 0.10545 5.83144 0.292999 5.62145ZM10.388 1.95052H9.16589C8.88974 1.95052 8.66589 2.17438 8.66589 2.45052V6.25052C8.66589 6.52666 8.88974 6.75052 9.16589 6.75052H10.388C10.6642 6.75052 10.888 6.52666 10.888 6.25052V2.45052C10.888 2.17438 10.6642 1.95052 10.388 1.95052ZM13.7212 1.95052H12.4991C12.2229 1.95052 11.9991 2.17438 11.9991 2.45052V6.25052C11.9991 6.52666 12.2229 6.75052 12.4991 6.75052H13.7212C13.9974 6.75052 14.2212 6.52666 14.2212 6.25052V2.45052C14.2212 2.17438 13.9974 1.95052 13.7212 1.95052ZM5.83268 3.15052H7.05482C7.33096 3.15052 7.55482 3.37438 7.55482 3.65052V6.25052C7.55482 6.52666 7.33096 6.75052 7.05482 6.75052H5.83268C5.55654 6.75052 5.33268 6.52666 5.33268 6.25052V3.65052C5.33268 3.37438 5.55654 3.15052 5.83268 3.15052Z" fill="#FDE021"/>
</svg>

