<?xml version="1.0" encoding="iso-8859-1"?>
<!-- Uploaded to: SVG Repo, www.svgrepo.com, Generator: SVG Repo Mixer Tools -->
<svg fill="#000000" version="1.1" id="Capa_1" xmlns="http://www.w3.org/2000/svg" xmlns:xlink="http://www.w3.org/1999/xlink" 
	 viewBox="0 0 490 490" xml:space="preserve">
<g>
	<g>
		<path d="M374.755,490l-97.795-77.964c-10.813,1.69-21.536,2.543-31.96,2.543c-114.695,0-208.003-92.994-208.003-207.286
			C36.997,92.994,130.305,0,245,0s208.003,92.994,208.003,207.293c0,63.607-28.416,122.113-78.248,161.746V490z M285.186,379.433
			l58.94,46.976v-72.655l6.221-4.591c45.779-33.785,72.027-85.502,72.027-141.87c0-97.414-79.564-176.664-177.374-176.664
			S67.626,109.879,67.626,207.293c0,97.406,79.564,176.656,177.374,176.656c10.783,0,21.985-1.077,33.291-3.216L285.186,379.433z"/>
	</g>
	<g>
		<rect x="149.164" y="114.605" width="191.672" height="30.629"/>
	</g>
	<g>
		<rect x="149.164" y="189.69" width="191.672" height="30.629"/>
	</g>
	<g>
		<rect x="149.164" y="264.768" width="191.672" height="30.629"/>
	</g>
</g>
</svg>