<svg width="17" height="24" viewBox="0 0 18 25" fill="none" xmlns="http://www.w3.org/2000/svg">
<path d="M1.5 24H4M16.5 24H14.0526M4 24L6.5 16M4 24H9M14.0526 24H9M14.0526 24L11.5 16M6.5 16L9 8L11.5 16M6.5 16L9 24M6.5 16H11.5M9 24L11.5 16" stroke="#00274D" stroke-width="2" stroke-linecap="round"/>
<circle cx="9" cy="6" r="2" fill="#00274D"/>
<path d="M11.62 8.80592C11.8299 9.16943 12.3009 9.29878 12.6182 9.02404C12.9539 8.73338 13.2403 8.38768 13.4641 8.00007C13.8151 7.39203 14 6.70229 14 6.00017C14 5.29805 13.8152 4.60829 13.4642 4.00022C13.2405 3.61259 12.9542 3.26686 12.6185 2.97618C12.3012 2.70141 11.8301 2.83073 11.6202 3.19421C11.4103 3.5577 11.5471 4.01678 11.8303 4.32656C11.951 4.45861 12.0576 4.60388 12.1478 4.76014C12.3655 5.13714 12.48 5.56479 12.48 6.0001C12.48 6.43542 12.3654 6.86306 12.1477 7.24005C12.0575 7.39629 11.9509 7.54155 11.8302 7.67359C11.5469 7.98335 11.4101 8.44242 11.62 8.80592Z" fill="#00274D"/>
<mask id="path-4-inside-1_2892_603" fill="white">
<path d="M14.3746 10.0217C14.6409 10.339 15.118 10.3833 15.3997 10.0796C15.8229 9.62312 16.1736 9.10244 16.4379 8.53552C16.8082 7.74139 17.0001 6.87579 17 5.99958C16.9999 5.12337 16.808 4.2578 16.4376 3.46372C16.1732 2.89684 15.8224 2.37621 15.3991 1.91982C15.1174 1.61613 14.6403 1.66045 14.3741 1.9778C14.1079 2.29514 14.1552 2.76479 14.4239 3.07996C14.6861 3.38737 14.9064 3.72957 15.0782 4.09779C15.356 4.69335 15.5 5.34253 15.5 5.99969C15.5 6.65685 15.3562 7.30604 15.0785 7.90164C14.9068 8.26988 14.6865 8.61211 14.4243 8.91957C14.1556 9.23477 14.1084 9.70443 14.3746 10.0217Z"/>
</mask>
<path d="M14.3746 10.0217C14.6409 10.339 15.118 10.3833 15.3997 10.0796C15.8229 9.62312 16.1736 9.10244 16.4379 8.53552C16.8082 7.74139 17.0001 6.87579 17 5.99958C16.9999 5.12337 16.808 4.2578 16.4376 3.46372C16.1732 2.89684 15.8224 2.37621 15.3991 1.91982C15.1174 1.61613 14.6403 1.66045 14.3741 1.9778C14.1079 2.29514 14.1552 2.76479 14.4239 3.07996C14.6861 3.38737 14.9064 3.72957 15.0782 4.09779C15.356 4.69335 15.5 5.34253 15.5 5.99969C15.5 6.65685 15.3562 7.30604 15.0785 7.90164C14.9068 8.26988 14.6865 8.61211 14.4243 8.91957C14.1556 9.23477 14.1084 9.70443 14.3746 10.0217Z" fill="#00274D" stroke="#00274D" stroke-width="2" mask="url(#path-4-inside-1_2892_603)"/>
<path d="M6.38 8.80592C6.17013 9.16943 5.69908 9.29878 5.38176 9.02404C5.04606 8.73338 4.75974 8.38768 4.53594 8.00007C4.18487 7.39203 4.00003 6.70229 4 6.00017C3.99997 5.29805 4.18475 4.60829 4.53577 4.00022C4.75954 3.61259 5.04583 3.26686 5.3815 2.97618C5.6988 2.70141 6.16987 2.83073 6.37976 3.19421C6.58966 3.5577 6.45293 4.01678 6.1697 4.32656C6.04897 4.45861 5.94238 4.60388 5.85218 4.76014C5.63455 5.13714 5.51998 5.56479 5.52 6.0001C5.52002 6.43542 5.63462 6.86306 5.85228 7.24005C5.9425 7.39629 6.04909 7.54155 6.16984 7.67359C6.45309 7.98335 6.58987 8.44242 6.38 8.80592Z" fill="#00274D"/>
<mask id="path-6-inside-2_2892_603" fill="white">
<path d="M3.62537 10.0217C3.35911 10.339 2.88196 10.3833 2.60032 10.0796C2.17709 9.62312 1.8264 9.10244 1.56207 8.53552C1.19179 7.74139 0.999939 6.87579 1 5.99958C1.00006 5.12337 1.19203 4.2578 1.56242 3.46372C1.82683 2.89684 2.17759 2.37621 2.60089 1.91982C2.88257 1.61613 3.35972 1.66045 3.62593 1.9778C3.89213 2.29514 3.84485 2.76479 3.57606 3.07996C3.31389 3.38737 3.09356 3.72957 2.92181 4.09779C2.64402 4.69335 2.50005 5.34253 2.5 5.99969C2.49995 6.65685 2.64384 7.30604 2.92155 7.90164C3.09325 8.26988 3.31353 8.61211 3.57566 8.91957C3.84439 9.23477 3.89162 9.70443 3.62537 10.0217Z"/>
</mask>
<path d="M3.62537 10.0217C3.35911 10.339 2.88196 10.3833 2.60032 10.0796C2.17709 9.62312 1.8264 9.10244 1.56207 8.53552C1.19179 7.74139 0.999939 6.87579 1 5.99958C1.00006 5.12337 1.19203 4.2578 1.56242 3.46372C1.82683 2.89684 2.17759 2.37621 2.60089 1.91982C2.88257 1.61613 3.35972 1.66045 3.62593 1.9778C3.89213 2.29514 3.84485 2.76479 3.57606 3.07996C3.31389 3.38737 3.09356 3.72957 2.92181 4.09779C2.64402 4.69335 2.50005 5.34253 2.5 5.99969C2.49995 6.65685 2.64384 7.30604 2.92155 7.90164C3.09325 8.26988 3.31353 8.61211 3.57566 8.91957C3.84439 9.23477 3.89162 9.70443 3.62537 10.0217Z" fill="#00274D" stroke="#00274D" stroke-width="2" mask="url(#path-6-inside-2_2892_603)"/>
</svg>