<svg width="28" height="16" viewBox="0 0 28 16" fill="none" xmlns="http://www.w3.org/2000/svg">
<path d="M4 3.5529C6.82855 1.24919 10.3597 -0.00539646 14 1.74488e-05C17.7887 1.74488e-05 21.2679 1.33068 24 3.5529L22.3333 5.62668C19.9761 3.70715 17.0335 2.66192 14 2.66668C10.8435 2.66668 7.94341 3.77601 5.66667 5.62668L4 3.5529ZM6.77719 7.01068C8.82016 5.34668 11.3707 4.44049 14 4.44446C16.7356 4.44446 19.2485 5.40534 21.2228 7.00979L19.5561 9.08445C17.9845 7.80464 16.0225 7.10781 14 7.11112C11.8957 7.11112 9.96286 7.85068 8.44386 9.08445L6.77719 7.00979V7.01068ZM9.55526 10.4685C10.8124 9.44436 12.3819 8.88659 14 8.8889C15.6835 8.8889 17.2299 9.48001 18.4447 10.4676L16.7781 12.5422C15.9922 11.9024 15.0113 11.554 14 11.5556C12.9888 11.554 12.0078 11.9024 11.2219 12.5422L9.55526 10.4676V10.4685ZM12.3333 13.9262C12.8046 13.542 13.3932 13.3326 14 13.3333C14.6313 13.3333 15.2113 13.5556 15.6667 13.9253L14 16L12.3333 13.9262Z" fill="#627482"/>
</svg>