<svg width="28" height="16" viewBox="0 0 28 16" fill="none" xmlns="http://www.w3.org/2000/svg">
<path d="M9.74487 13V10.5139H4V8.61111L9.95814 3H11.7842V8.375H13.0638V10.5139H11.7842V13H9.74487ZM7.31896 8.375H9.74487V6.31944L7.31896 8.375Z" fill="white"/>
<path d="M16.3757 13C15.8337 13 15.3671 12.8009 14.9762 12.4028C14.5941 11.9954 14.403 11.5093 14.403 10.9444V5.05556C14.403 4.49074 14.5941 4.00926 14.9762 3.61111C15.3671 3.2037 15.8337 3 16.3757 3H22.014C22.556 3 23.0225 3.2037 23.4135 3.61111C23.8045 4.00926 24 4.49074 24 5.05556V6H21.9073V5.625C21.9073 5.31944 21.9073 5.16667 21.9073 5.16667C21.9073 5.16667 21.7607 5.16667 21.4675 5.16667H16.9089C16.6156 5.16667 16.469 5.16667 16.469 5.16667C16.469 5.16667 16.469 5.31944 16.469 5.625V10.375C16.469 10.6806 16.469 10.8333 16.469 10.8333C16.469 10.8333 16.6156 10.8333 16.9089 10.8333H21.4675C21.7607 10.8333 21.9073 10.8333 21.9073 10.8333C21.9073 10.8333 21.9073 10.6806 21.9073 10.375V9.33333H19.828V7.16667H24V10.9444C24 11.5093 23.8045 11.9954 23.4135 12.4028C23.0225 12.8009 22.556 13 22.014 13H16.3757Z" fill="#627482"/>
</svg>

