<svg width="22" height="20" viewBox="0 0 22 20" fill="none" xmlns="http://www.w3.org/2000/svg">
<path d="M3.43 2.43C3.12 2.74 3.12 3.26 3.43 3.57L8.87 9L3.43 14.43C3.12 14.74 3.12 15.26 3.43 15.57L4.43 16.57C4.74 16.88 5.26 16.88 5.57 16.57L12.57 9.57C12.88 9.26 12.88 8.74 12.57 8.43L5.57 1.43C5.26 1.12 4.74 1.12 4.43 1.43L3.43 2.43Z" fill="#00274D"/>
<path d="M13 15.98C13 15.54 13.36 15.18 13.8 15.18H20.2C20.64 15.18 21 15.54 21 15.98V17.02C21 17.46 20.64 17.82 20.2 17.82H13.8C13.36 17.82 13 17.46 13 17.02V15.98Z" fill="#00274D"/>
</svg>
