<svg width="22" height="22" viewBox="0 0 22 22" fill="none" xmlns="http://www.w3.org/2000/svg">
<path d="M0 11C0 9.46667 0.287667 8.03333 0.863 6.7C1.43833 5.36667 2.22567 4.20433 3.225 3.213C4.22433 2.22167 5.391 1.43833 6.725 0.863C8.059 0.287667 9.484 0 11 0C12.516 0 13.941 0.287667 15.275 0.863C16.609 1.43833 17.7757 2.22167 18.775 3.213C19.7743 4.20433 20.562 5.36667 21.138 6.7C21.714 8.03333 22.0013 9.46667 22 11H20C20 9.75 19.7627 8.57933 19.288 7.488C18.8133 6.39667 18.1673 5.44233 17.35 4.625C16.5327 3.80767 15.5783 3.166 14.487 2.7C13.3957 2.234 12.2333 2.00067 11 2C9.76667 1.99933 8.604 2.23267 7.512 2.7C6.42 3.16733 5.466 3.809 4.65 4.625C3.834 5.441 3.18833 6.39533 2.713 7.488C2.23767 8.58067 2 9.75133 2 11H0ZM4 11C4 9.03333 4.68333 7.375 6.05 6.025C7.41667 4.675 9.06667 4 11 4C12.9333 4 14.5833 4.675 15.95 6.025C17.3167 7.375 18 9.03333 18 11H16C16 9.61667 15.5123 8.43767 14.537 7.463C13.5617 6.48833 12.3827 6.00067 11 6C9.61733 5.99933 8.43833 6.487 7.463 7.463C6.48767 8.439 6 9.618 6 11H4ZM8 21.4L6.6 20L10 16.6V13.3C9.55 13.1 9.18733 12.7917 8.912 12.375C8.63667 11.9583 8.49933 11.5 8.5 11C8.5 10.3 8.74167 9.70833 9.225 9.225C9.70833 8.74167 10.3 8.5 11 8.5C11.7 8.5 12.2917 8.74167 12.775 9.225C13.2583 9.70833 13.5 10.3 13.5 11C13.5 11.5 13.3623 11.9583 13.087 12.375C12.8117 12.7917 12.4493 13.1 12 13.3V16.6L15.4 20L14 21.4L11 18.4L8 21.4Z" fill="#00274D"/>
</svg>

