<svg width="16" height="21" viewBox="0 0 16 21" fill="none" xmlns="http://www.w3.org/2000/svg">
<path d="M1 0H11L15.707 4.94235C15.8946 5.13922 15.9999 5.40625 16 5.6847V19.95C16 20.2285 15.8946 20.4956 15.7071 20.6925C15.5196 20.8894 15.2652 21 15 21H1C0.734784 21 0.48043 20.8894 0.292893 20.6925C0.105357 20.4956 0 20.2285 0 19.95V1.05C0 0.771523 0.105357 0.504451 0.292893 0.307538C0.48043 0.110625 0.734784 0 1 0ZM9 16.8V8.4H4V10.5H7V16.8H9ZM4 11.55V13.65H6V11.55H4ZM10 11.55V13.65H12V11.55H10ZM10 8.4V10.5H12V8.4H10ZM4 14.7V16.8H6V14.7H4ZM10 14.7V16.8H12V14.7H10Z" fill="#FDE021"/>
</svg>
