<svg width="27" height="24" viewBox="0 0 20 18" fill="none" xmlns="http://www.w3.org/2000/svg">
<path d="M1 18C0.71667 18 0.479337 17.904 0.288004 17.712C0.0966702 17.52 0.000670115 17.2827 3.44827e-06 17C-0.000663218 16.7173 0.0953369 16.48 0.288004 16.288C0.48067 16.096 0.718003 16 1 16H19C19.2833 16 19.521 16.096 19.713 16.288C19.905 16.48 20.0007 16.7173 20 17C19.9993 17.2827 19.9033 17.5203 19.712 17.713C19.5207 17.9057 19.2833 18.0013 19 18H1ZM2.5 15C2.08334 15 1.72934 14.8543 1.438 14.563C1.14667 14.2717 1.00067 13.9173 1 13.5V9.5C1 9.08333 1.146 8.72933 1.438 8.438C1.73 8.14667 2.084 8.00067 2.5 8C2.916 7.99934 3.27034 8.14534 3.563 8.438C3.85567 8.73067 4.00134 9.08467 4 9.5V13.5C4 13.9167 3.85434 14.271 3.563 14.563C3.27167 14.855 2.91734 15.0007 2.5 15ZM7.5 15C7.08334 15 6.72934 14.8543 6.438 14.563C6.14667 14.2717 6.00067 13.9173 6 13.5V4.5C6 4.08334 6.146 3.72934 6.438 3.438C6.73 3.14667 7.084 3.00067 7.5 3C7.916 2.99934 8.27034 3.14534 8.563 3.438C8.85567 3.73067 9.00134 4.08467 9 4.5V13.5C9 13.9167 8.85434 14.271 8.563 14.563C8.27167 14.855 7.91734 15.0007 7.5 15ZM12.5 15C12.0833 15 11.7293 14.8543 11.438 14.563C11.1467 14.2717 11.0007 13.9173 11 13.5V7.5C11 7.08334 11.146 6.72934 11.438 6.438C11.73 6.14667 12.084 6.00067 12.5 6C12.916 5.99934 13.2703 6.14534 13.563 6.438C13.8557 6.73067 14.0013 7.08467 14 7.5V13.5C14 13.9167 13.8543 14.271 13.563 14.563C13.2717 14.855 12.9173 15.0007 12.5 15ZM17.5 15C17.0833 15 16.7293 14.8543 16.438 14.563C16.1467 14.2717 16.0007 13.9173 16 13.5V1.5C16 1.08334 16.146 0.729336 16.438 0.438002C16.73 0.146669 17.084 0.000668939 17.5 2.27273e-06C17.916 -0.000664394 18.2703 0.145336 18.563 0.438002C18.8557 0.730669 19.0013 1.08467 19 1.5V13.5C19 13.9167 18.8543 14.271 18.563 14.563C18.2717 14.855 17.9173 15.0007 17.5 15Z" fill="#00274D"/>
</svg>

