<svg width="92" height="74" viewBox="0 0 92 74" fill="none" xmlns="http://www.w3.org/2000/svg">
<path d="M81.3755 13.6122L67.2694 27.7283C65.4638 29.5352 65.4648 32.4638 67.2717 34.2694C69.0787 36.0751 72.0072 36.074 73.8129 34.2671L87.9189 20.151C89.7246 18.3441 89.7236 15.4155 87.9166 13.6099C86.1097 11.8043 83.1811 11.8053 81.3755 13.6122Z" fill="black"/>
<path d="M41 4.62568L41 24.5817C41 27.1362 43.0708 29.207 45.6253 29.207C48.1798 29.207 50.2506 27.1362 50.2506 24.5817L50.2506 4.62568C50.2506 2.0712 48.1798 0.000395689 45.6253 0.000395801C43.0708 0.000395912 41 2.07121 41 4.62568Z" fill="black"/>
<path d="M3.2707 20.6184L17.3818 34.7294C19.1881 36.5357 22.1166 36.5357 23.9229 34.7294C25.7292 32.9231 25.7292 29.9946 23.9229 28.1883L9.81184 14.0772C8.00556 12.2709 5.07699 12.2709 3.2707 14.0772C1.46442 15.8835 1.46442 18.8121 3.2707 20.6184Z" fill="black"/>
<path d="M88 74H4C1.79086 74 0 72.2091 0 70C0 67.7909 1.79086 66 4 66H88C90.2091 66 92 67.7909 92 70C92 72.2091 90.2091 74 88 74Z" fill="black"/>
<path d="M35 44H57C63.0751 44 68 48.9249 68 55V70H24V55C24 49.1148 28.6217 44.3094 34.4336 44.0146L35 44Z" stroke="black" stroke-width="8"/>
</svg>
